<svg width="64" height="64" viewBox="0 0 64 64" fill="none" xmlns="http://www.w3.org/2000/svg">
<circle cx="32" cy="32" r="32" fill="#c77e25"/>
<mask id="mask0_23_418" style="mask-type:alpha" maskUnits="userSpaceOnUse" x="12" y="12" width="40" height="40">
<rect x="12.7998" y="12.8" width="38.4" height="38.4" fill="#D9D9D9"/>
</mask>
<g mask="url(#mask0_23_418)">
<path d="M19.1997 44.8V41.6H23.5997L22.9597 41.04C21.573 39.8133 20.5997 38.4133 20.0397 36.84C19.4797 35.2666 19.1997 33.68 19.1997 32.08C19.1997 29.12 20.0864 26.4866 21.8597 24.18C23.633 21.8733 25.9464 20.3466 28.7997 19.6V22.96C26.8797 23.6533 25.333 24.8333 24.1597 26.5C22.9864 28.1666 22.3997 30.0266 22.3997 32.08C22.3997 33.28 22.6264 34.4466 23.0797 35.58C23.533 36.7133 24.2397 37.76 25.1997 38.72L25.5997 39.12V35.2H28.7997V44.8H19.1997ZM35.1997 44.4V41.04C37.1197 40.3466 38.6664 39.1666 39.8397 37.5C41.013 35.8333 41.5997 33.9733 41.5997 31.92C41.5997 30.72 41.373 29.5533 40.9197 28.42C40.4664 27.2866 39.7597 26.24 38.7997 25.28L38.3997 24.88V28.8H35.1997V19.2H44.7997V22.4H40.3997L41.0397 22.96C42.3464 24.2666 43.2997 25.6866 43.8997 27.22C44.4997 28.7533 44.7997 30.32 44.7997 31.92C44.7997 34.88 43.913 37.5133 42.1397 39.82C40.3664 42.1266 38.053 43.6533 35.1997 44.4Z" fill="white"/>
</g>
</svg>
